# xmcd
#
# Track frame offsets:
#	150
#	1538
#	9669
#	24556
#	40347
#	59470
#	83600
#	104161
#	120441
#	136571
#	154381
#	173733
#
# Disc length: 2589 seconds
#
# Revision: 1
# Processed by: cddbd v1.4PL0 Copyright (c) Steve Scherf et al.
# Submitted via: EasyCDDAExtractor 5.1.0
#
DISCID=890a1b0c
DTITLE=F.Co - The King of Texas
DYEAR=2002
DGENRE=Country
TTITLE0=Intro
TTITLE1=King of Texas
TTITLE2=Roads are a River
TTITLE3=North To Buffalo
TTITLE4=Tattoos and Tears
TTITLE5=400 Miles
TTITLE6=Santa Rosa Street
TTITLE7=18 Wheels of Beer
TTITLE8=All This Catching Up
TTITLE9=Do You Ever Get the Feeling
TTITLE10=Longest Song
TTITLE11=18 Wheels of Beer - Remix
EXTD=
EXTT0=
EXTT1=
EXTT2=
EXTT3=
EXTT4=
EXTT5=
EXTT6=
EXTT7=
EXTT8=
EXTT9=
EXTT10=
EXTT11=
PLAYORDER=
